<svg xmlns="http://www.w3.org/2000/svg" viewBox="0 0 189.44 83.51"><defs><style>.cls-1{fill:#46434e;}</style></defs><title>Asset 1</title><g id="Layer_2" data-name="Layer 2"><g id="Layer_1-2" data-name="Layer 1"><path class="cls-1" d="M76.16,29.9C65.72,26.68,56,28.5,47.7,35.84l-6.36,5.59a1.23,1.23,0,0,1-2-1.1c1-7.35,2-14.09,3-20.83.18-1.21.48-2.4.88-4.09.13-.55.26-1.15.41-1.81.1.62.21,1.22.3,1.81.75,4.46,1.39,8.29,2,12.21a1.22,1.22,0,0,0,1.76.88l8.44-4.38a1.23,1.23,0,0,0,.64-1.27c-.38-2.53-.76-5-1.12-7.44L54.22,5.17A6,6,0,0,0,48.28,0H41a7.22,7.22,0,0,0-7.15,6.19l-1.34,9.23Q30,32,27.24,48.53c-1,6.25-2.61,7.42-8.87,6.35-4.18-.71-6.64-3.32-6.79-7.43S14,40.7,18.1,39.87a34.68,34.68,0,0,1,4.06-.45,1.22,1.22,0,0,0,1.1-1c.49-3,.95-5.81,1.47-9A1.23,1.23,0,0,0,23.41,28c-2.76.22-5.12.36-7.44.71C6.63,30,.58,36.79,0,46.31-.5,56.42,4.88,64.46,14,66.71c11.21,2.74,20.6-1.14,28.88-8.54,1.6-1.43,3.19-2.89,4.85-4.43a1.23,1.23,0,0,1,2,.71L53.92,81.3a2.59,2.59,0,0,0,2.56,2.21H65a1.21,1.21,0,0,0,1.2-1.33c-.15-1.54-.27-2.94-.49-4.32-1.7-10.69-3.51-21.35-5-32.06-.19-1.32.67-3.64,1.71-4.15C67.94,39,74.93,41.26,76.58,46s-1.15,8-8.05,10c-.12,0-.18.27-.59.89.43,2.7.9,5.69,1.4,8.68a1.22,1.22,0,0,0,1.16,1c8.88.14,15.55-5.5,17.29-14.47C89.78,42,85.11,32.64,76.16,29.9Z"/><path class="cls-1" d="M23.38,83.42h8.25A1.38,1.38,0,0,0,33,82.23c.44-3.17.85-6.16,1.28-9.24a1.37,1.37,0,0,0-1.63-1.53l-8.3,1.69a1.36,1.36,0,0,0-1.08,1.11c-.4,2.42-.81,5-1.24,7.57A1.37,1.37,0,0,0,23.38,83.42Z"/><path class="cls-1" d="M101.53,31.71a.3.3,0,0,1-.24-.12.31.31,0,0,1-.08-.26L104,15a.22.22,0,0,1,.1-.19.33.33,0,0,1,.22-.09h2.28a.29.29,0,0,1,.32.26v0l2.74,16.36a.26.26,0,0,1-.06.26.34.34,0,0,1-.26.12h-2a.3.3,0,0,1-.33-.31l-.36-2.63h-2.39l-.36,2.63c-.06.2-.17.31-.33.31Zm3-5.5h1.7l-.84-6.15Z"/><path class="cls-1" d="M117.32,31.61a.35.35,0,0,1-.25.1h-5.74a.32.32,0,0,1-.32-.34V15a.25.25,0,0,1,.1-.22.33.33,0,0,1,.22-.09h2a.28.28,0,0,1,.31.31V29.15h3.48a.38.38,0,0,1,.25.09.31.31,0,0,1,.11.23v1.88A.35.35,0,0,1,117.32,31.61Z"/><path class="cls-1" d="M121.78,14.65h3.58a.3.3,0,0,1,.22.1.28.28,0,0,1,.11.24v1.88a.29.29,0,0,1-.11.22.28.28,0,0,1-.22.11h-3.58v4.67h2.58a.32.32,0,0,1,.23.1.28.28,0,0,1,.11.21v1.94a.31.31,0,0,1-.11.22.33.33,0,0,1-.23.11h-2.58v4.65h3.58a.33.33,0,0,1,.22.09.28.28,0,0,1,.11.23v1.9a.29.29,0,0,1-.11.24.3.3,0,0,1-.22.1h-5.81a.29.29,0,0,1-.23-.1.4.4,0,0,1-.1-.26V15c0-.23.11-.34.33-.34Z"/><path class="cls-1" d="M127.59,14.78a.35.35,0,0,1,.22-.09h2a.27.27,0,0,1,.31.31v5.88l2.51-6a.3.3,0,0,1,.31-.19h2a.31.31,0,0,1,.26.14.3.3,0,0,1,0,.3L131.86,23l3.27,8.2a.35.35,0,0,1,0,.32.31.31,0,0,1-.27.14h-2a.31.31,0,0,1-.31-.21l-2.11-5.22-.4,1v4.12c0,.23-.1.34-.31.34h-2a.35.35,0,0,1-.22-.09.33.33,0,0,1-.1-.25V15A.25.25,0,0,1,127.59,14.78Z"/><path class="cls-1" d="M143.33,29.79a3.33,3.33,0,0,1-.68,1,3.07,3.07,0,0,1-1,.67,3,3,0,0,1-1.23.25H140a3.05,3.05,0,0,1-1.24-.25,3.23,3.23,0,0,1-1-.67,3.3,3.3,0,0,1-.67-1,3,3,0,0,1-.25-1.24v-2a.29.29,0,0,1,.24-.33h2c.23,0,.34.11.34.33v2a.58.58,0,0,0,.17.43.61.61,0,0,0,.44.16h.41a.64.64,0,0,0,.44-.17.57.57,0,0,0,.17-.42V25.88a.9.9,0,0,0-.09-.4,1,1,0,0,0-.25-.33l-3.19-2.87a2,2,0,0,1-.67-1.5v-2.9a3,3,0,0,1,.25-1.24,3.23,3.23,0,0,1,.67-1,3.09,3.09,0,0,1,1-.68,3.05,3.05,0,0,1,1.24-.25h.41a3.17,3.17,0,0,1,2.24.93,3.22,3.22,0,0,1,.93,2.26v2a.32.32,0,0,1-.1.22.28.28,0,0,1-.24.11h-1.89a.28.28,0,0,1-.24-.11.32.32,0,0,1-.1-.22v-2a.59.59,0,0,0-.18-.44.61.61,0,0,0-.43-.17H140a.59.59,0,0,0-.44.18.61.61,0,0,0-.17.43v2.47a1,1,0,0,0,.34.76L142.92,24a1.91,1.91,0,0,1,.66,1.49v3.07A3.23,3.23,0,0,1,143.33,29.79Z"/><path class="cls-1" d="M145,31.71a.28.28,0,0,1-.23-.12.31.31,0,0,1-.08-.26L147.44,15a.23.23,0,0,1,.11-.19.33.33,0,0,1,.22-.09h2.28a.29.29,0,0,1,.32.26v0l2.73,16.36a.28.28,0,0,1,0,.26.34.34,0,0,1-.26.12h-2a.3.3,0,0,1-.32-.31l-.36-2.63h-2.49l-.35,2.63c-.07.2-.17.31-.33.31Zm3-5.5h1.7l-.85-6.15Z"/><path class="cls-1" d="M162.26,14.68a.3.3,0,0,1,.22.1.29.29,0,0,1,.1.23V31.36a.31.31,0,0,1-.1.24.3.3,0,0,1-.22.1h-1.88a.66.66,0,0,1-.27-.06.33.33,0,0,1-.18-.25l-.17-.51c-.1-.29-.21-.67-.34-1.14s-.29-1-.45-1.56l-.51-1.77-1.38-4.73v9.68c0,.23-.11.34-.33.34h-1.89a.4.4,0,0,1-.25-.09.34.34,0,0,1-.11-.25V15a.3.3,0,0,1,.11-.23.33.33,0,0,1,.25-.1H157c.11,0,.18.11.23.27s.07.21.15.52l.34,1.15.45,1.56c.16.56.33,1.16.5,1.74.41,1.39.87,3,1.38,4.72V15c0-.23.11-.33.34-.33Z"/><path class="cls-1" d="M167,31.72h-2.58V14.65h3.55a3.1,3.1,0,0,1,1.27.22,2.8,2.8,0,0,1,1,.69,3.23,3.23,0,0,1,.67,1,3.1,3.1,0,0,1,.23,1.31V28.54a3,3,0,0,1-.25,1.24,3.14,3.14,0,0,1-.67,1,3.06,3.06,0,0,1-1,.68,3.1,3.1,0,0,1-1.25.25h-1Zm0-2.58h1a.55.55,0,0,0,.43-.18.6.6,0,0,0,.16-.43V17.88a.6.6,0,0,0-.16-.44.55.55,0,0,0-.43-.18h-1Z"/><path class="cls-1" d="M172.83,31.71a.29.29,0,0,1-.24-.12.31.31,0,0,1-.08-.26L175.21,15a.22.22,0,0,1,.1-.19.33.33,0,0,1,.22-.09h2.28a.29.29,0,0,1,.32.26v0l2.74,16.36a.26.26,0,0,1-.06.26.34.34,0,0,1-.26.12h-2a.3.3,0,0,1-.33-.31l-.36-2.63h-2.38l-.36,2.63c-.06.2-.17.31-.33.31Zm3-5.5h1.7l-.84-6.15Z"/><path class="cls-1" d="M187.28,31.75a.31.31,0,0,1-.31-.19l-2.08-6v5.85a.3.3,0,0,1-.25.34h-2a.36.36,0,0,1-.24-.09.31.31,0,0,1-.11-.25V15a.3.3,0,0,1,.1-.22.31.31,0,0,1,.25-.11h3.18a3,3,0,0,1,1.24.25,3,3,0,0,1,1,.68,3.59,3.59,0,0,1,.67,1,3.23,3.23,0,0,1,.26,1.26v3.78a3,3,0,0,1-.55,1.78,3.15,3.15,0,0,1-1.4,1.16l2.33,6.74a.29.29,0,0,1,0,.31.31.31,0,0,1-.28.15Zm-2.39-9.53h.95a.6.6,0,0,0,.44-.18.61.61,0,0,0,.17-.43V17.88a.62.62,0,0,0-.17-.44.64.64,0,0,0-.44-.17h-.95Z"/><path class="cls-1" d="M111.26,65.93a4.74,4.74,0,0,1-2.54,2.54,4.65,4.65,0,0,1-1.86.38h-.65a4.69,4.69,0,0,1-4.4-2.92,4.66,4.66,0,0,1-.37-1.87v-3a.44.44,0,0,1,.36-.51h3a.45.45,0,0,1,.51.51v3a.86.86,0,0,0,.26.65,1,1,0,0,0,.66.24h.62a.92.92,0,0,0,.66-.25.87.87,0,0,0,.26-.64v-4a1.48,1.48,0,0,0-.51-1.1l-4.81-4.33a2.9,2.9,0,0,1-1-2.25V48.05a4.78,4.78,0,0,1,.37-1.88,4.88,4.88,0,0,1,1-1.53,4.64,4.64,0,0,1,1.53-1,4.74,4.74,0,0,1,1.85-.45h.62a4.65,4.65,0,0,1,1.86.38,4.7,4.7,0,0,1,1.52,1,4.88,4.88,0,0,1,1,1.53,4.78,4.78,0,0,1,.38,1.88v2.93a.53.53,0,0,1-.14.34.48.48,0,0,1-.37.17h-2.79a.48.48,0,0,1-.36-.17.5.5,0,0,1-.15-.34V48a.87.87,0,0,0-.27-.66.88.88,0,0,0-.65-.26h-.65a.91.91,0,0,0-.92.9s0,0,0,0v3.72a1.5,1.5,0,0,0,.55,1.17l4.8,4.31a2.86,2.86,0,0,1,1,2.25v4.62A4.66,4.66,0,0,1,111.26,65.93Z"/><path class="cls-1" d="M120.34,68.82h-3c-.29,0-.43-.16-.42-.47V47h-3.1c-.32,0-.47-.17-.47-.51V43.59a.48.48,0,0,1,.14-.34.42.42,0,0,1,.33-.17h10.1a.48.48,0,0,1,.36.17.5.5,0,0,1,.15.34v2.89a.45.45,0,0,1-.38.51h-3.23V68.35a.42.42,0,0,1-.36.47Z"/><path class="cls-1" d="M124.6,68.82a.48.48,0,0,1-.36-.17.52.52,0,0,1-.11-.4l4.08-24.66a.35.35,0,0,1,.16-.3.52.52,0,0,1,.33-.12h3.51a.43.43,0,0,1,.48.42l4.12,24.66a.38.38,0,0,1-.08.39.51.51,0,0,1-.39.18h-3a.45.45,0,0,1-.48-.47l-.54-4H128.6l-.54,4c-.1.31-.26.47-.49.47Zm4.61-8.29h2.57l-1.27-9.26Z"/><path class="cls-1" d="M140.43,68.27V57.46l-4.29-13.58a.51.51,0,0,1,.07-.47.49.49,0,0,1,.43-.19h2.78a.46.46,0,0,1,.5.31l2.43,7.79,2.44-7.79a.5.5,0,0,1,.49-.31h2.79a.5.5,0,0,1,.43.19.46.46,0,0,1,0,.47l-4.25,13.56V68.27q0,.54-.51.54h-2.82C140.58,68.82,140.42,68.63,140.43,68.27Z"/><path class="cls-1" d="M150.8,43.29a.52.52,0,0,1,.33-.12h2.93c.31,0,.47.15.47.45v8.83l3.79-9a.44.44,0,0,1,.47-.28h3a.46.46,0,0,1,.42.71l-5,11.9,4.92,12.38a.48.48,0,0,1-.46.68h-2.88a.46.46,0,0,1-.47-.32l-3.18-7.87-.61,1.5v6.21c0,.34-.16.51-.47.51h-2.93a.49.49,0,0,1-.33-.14.44.44,0,0,1-.16-.37V43.62A.38.38,0,0,1,150.8,43.29Z"/><path class="cls-1" d="M170.39,43.12a4.78,4.78,0,0,1,1.88.37,4.62,4.62,0,0,1,1.52,1,4.9,4.9,0,0,1,1,1.54,4.78,4.78,0,0,1,.37,1.88V64a4.66,4.66,0,0,1-1.4,3.38,4.59,4.59,0,0,1-1.52,1,4.78,4.78,0,0,1-1.88.37h-.61a4.73,4.73,0,0,1-1.87-.37,4.85,4.85,0,0,1-1.53-1A4.68,4.68,0,0,1,164.93,64v-16a4.78,4.78,0,0,1,.38-1.88,4.91,4.91,0,0,1,2.57-2.58,4.73,4.73,0,0,1,1.87-.37Zm.93,4.83a.91.91,0,0,0-.9-.92h-.64a.89.89,0,0,0-.92.86s0,0,0,.06V64a.87.87,0,0,0,.27.66.88.88,0,0,0,.65.26h.61a.92.92,0,0,0,.93-.91h0Z"/><path class="cls-1" d="M189.32,43.35a.36.36,0,0,1,.08.37l-4.09,24.65a.45.45,0,0,1-.49.48h-3.47a.49.49,0,0,1-.51-.47h0l-4.1-24.65a.46.46,0,0,1,.11-.37.53.53,0,0,1,.4-.16h3c.29,0,.46.13.49.39l2.39,17.15,2.44-17.15a.43.43,0,0,1,.46-.39h3A.54.54,0,0,1,189.32,43.35Z"/></g></g></svg>