<svg xmlns="http://www.w3.org/2000/svg" viewBox="0 0 243.41 83.57"><defs><style>.cls-1{fill:#46434e;}</style></defs><title>Asset 2</title><g id="Layer_2" data-name="Layer 2"><g id="Layer_1-2" data-name="Layer 1"><path class="cls-1" d="M76.16,29.9C65.72,26.68,56,28.5,47.7,35.84l-6.36,5.59a1.23,1.23,0,0,1-2-1.1c1-7.35,2-14.09,3-20.83.18-1.21.48-2.4.88-4.09.13-.55.26-1.15.41-1.81.1.62.21,1.22.3,1.81.75,4.46,1.39,8.29,2,12.21a1.22,1.22,0,0,0,1.76.88l8.44-4.38a1.23,1.23,0,0,0,.64-1.27c-.38-2.53-.76-5-1.12-7.44L54.22,5.17A6,6,0,0,0,48.28,0H41a7.22,7.22,0,0,0-7.15,6.19l-1.34,9.23Q30,32,27.24,48.53c-1,6.25-2.61,7.42-8.87,6.35-4.18-.71-6.64-3.32-6.79-7.43S14,40.7,18.1,39.87a34.68,34.68,0,0,1,4.06-.45,1.22,1.22,0,0,0,1.1-1c.49-3,.95-5.81,1.47-9A1.23,1.23,0,0,0,23.41,28c-2.76.22-5.12.36-7.44.71C6.63,30,.58,36.79,0,46.31-.5,56.42,4.88,64.46,14,66.71c11.21,2.74,20.6-1.14,28.88-8.54,1.6-1.43,3.19-2.89,4.85-4.43a1.23,1.23,0,0,1,2,.71L53.92,81.3a2.59,2.59,0,0,0,2.56,2.21H65a1.21,1.21,0,0,0,1.2-1.33c-.15-1.54-.27-2.94-.49-4.32-1.7-10.69-3.51-21.35-5-32.06-.19-1.32.67-3.64,1.71-4.15C67.94,39,74.93,41.26,76.58,46s-1.15,8-8.05,10c-.12,0-.18.27-.59.89.43,2.7.9,5.69,1.4,8.68a1.22,1.22,0,0,0,1.16,1c8.88.14,15.55-5.5,17.29-14.47C89.78,42,85.11,32.64,76.16,29.9Z"/><path class="cls-1" d="M23.38,83.42h8.25A1.38,1.38,0,0,0,33,82.23c.44-3.17.85-6.16,1.28-9.24a1.37,1.37,0,0,0-1.63-1.53l-8.3,1.69a1.36,1.36,0,0,0-1.08,1.11c-.4,2.42-.81,5-1.24,7.57A1.37,1.37,0,0,0,23.38,83.42Z"/><path class="cls-1" d="M107.92,26.3a.46.46,0,0,1-.37-.18.48.48,0,0,1-.12-.4L111.65.49A.34.34,0,0,1,111.8.2a.51.51,0,0,1,.34-.14h3.51a.45.45,0,0,1,.49.4v0l4.22,25.22a.4.4,0,0,1-.09.4.52.52,0,0,1-.4.18H116.8a.46.46,0,0,1-.51-.48l-.55-4.05H112l-.55,4.05c-.09.31-.26.48-.51.48Zm4.62-8.48h2.62l-1.29-9.48Z"/><path class="cls-1" d="M132.26,26.14a.54.54,0,0,1-.39.15H123a.5.5,0,0,1-.49-.52V.54a.39.39,0,0,1,.15-.34A.51.51,0,0,1,123,.06h3.08a.43.43,0,0,1,.48.48V22.35h5.36a.59.59,0,0,1,.39.14.48.48,0,0,1,.17.35v2.9A.54.54,0,0,1,132.26,26.14Z"/><path class="cls-1" d="M139.13,0h5.52a.46.46,0,0,1,.34.15.43.43,0,0,1,.17.37v2.9a.45.45,0,0,1-.17.34.43.43,0,0,1-.34.17h-5.52v7.2h4a.49.49,0,0,1,.35.15.43.43,0,0,1,.17.32v3a.48.48,0,0,1-.17.34.51.51,0,0,1-.35.17h-4v7.17h5.52a.51.51,0,0,1,.34.14.43.43,0,0,1,.17.35v2.93a.45.45,0,0,1-.17.37.46.46,0,0,1-.34.15h-9a.45.45,0,0,1-.35-.15.62.62,0,0,1-.15-.4V.54c0-.35.17-.52.51-.52Z"/><path class="cls-1" d="M148.09.2a.54.54,0,0,1,.34-.14h3a.42.42,0,0,1,.48.48V9.6L155.78.35a.46.46,0,0,1,.48-.29h3.08a.48.48,0,0,1,.4.22.46.46,0,0,1,0,.46l-5.07,12.18,5,12.64a.54.54,0,0,1,0,.49.48.48,0,0,1-.42.22h-3a.48.48,0,0,1-.48-.32l-3.25-8-.62,1.54v6.35c0,.35-.15.52-.48.52h-3a.54.54,0,0,1-.34-.14.51.51,0,0,1-.15-.39V.54A.39.39,0,0,1,148.09.2Z"/><path class="cls-1" d="M172.35,23.35a5.13,5.13,0,0,1-1,1.54,4.73,4.73,0,0,1-1.54,1,4.62,4.62,0,0,1-1.9.39h-.63a4.7,4.7,0,0,1-1.91-.39,5,5,0,0,1-1.54-1,5.09,5.09,0,0,1-1-1.54,4.7,4.7,0,0,1-.39-1.91V18.36a.45.45,0,0,1,.38-.51h3.06c.35,0,.52.17.52.51v3.08a.89.89,0,0,0,.26.66.94.94,0,0,0,.68.25h.63a1,1,0,0,0,.68-.26.88.88,0,0,0,.26-.65V17.31a1.39,1.39,0,0,0-.14-.62,1.54,1.54,0,0,0-.39-.51l-4.92-4.42a3.08,3.08,0,0,1-1-2.31V5a4.7,4.7,0,0,1,.39-1.91,5,5,0,0,1,1-1.54,4.76,4.76,0,0,1,1.54-1,4.7,4.7,0,0,1,1.91-.39h.63a4.89,4.89,0,0,1,3.45,1.43A5,5,0,0,1,172.75,5V8.09a.49.49,0,0,1-.15.34.43.43,0,0,1-.37.17h-2.91a.43.43,0,0,1-.37-.17.49.49,0,0,1-.15-.34V5a.91.91,0,0,0-.28-.68.94.94,0,0,0-.66-.26h-.63a.91.91,0,0,0-.68.28.94.94,0,0,0-.26.66V8.82A1.54,1.54,0,0,0,166.8,10l4.92,4.41a2.94,2.94,0,0,1,1,2.3v4.73A5,5,0,0,1,172.35,23.35Z"/><path class="cls-1" d="M175,26.3a.43.43,0,0,1-.35-.18.48.48,0,0,1-.12-.4L178.68.49a.35.35,0,0,1,.17-.29.51.51,0,0,1,.34-.14h3.51a.45.45,0,0,1,.49.4v0l4.21,25.22a.43.43,0,0,1,0,.4.52.52,0,0,1-.4.18h-3.08a.46.46,0,0,1-.49-.48l-.55-4.05H179l-.54,4.05c-.11.31-.26.48-.51.48Zm4.62-8.48h2.62l-1.31-9.48Z"/><path class="cls-1" d="M201.52.06a.46.46,0,0,1,.34.15.45.45,0,0,1,.15.35v25.2a.48.48,0,0,1-.15.37.46.46,0,0,1-.34.15h-2.9a1,1,0,0,1-.42-.09.51.51,0,0,1-.28-.39s-.11-.34-.26-.79-.32-1-.52-1.76-.45-1.54-.69-2.4l-.79-2.73-2.13-7.29V25.77c0,.35-.17.52-.51.52h-2.91a.62.62,0,0,1-.39-.14.52.52,0,0,1-.17-.39V.57a.46.46,0,0,1,.17-.35.51.51,0,0,1,.39-.15h3.22c.17,0,.28.17.35.42s.11.32.23.8l.52,1.77c.2.71.45,1.54.69,2.4s.51,1.79.77,2.68c.63,2.14,1.34,4.62,2.13,7.28V.51c0-.35.17-.51.52-.51Z"/><path class="cls-1" d="M208.78,26.33h-4V0h5.47a4.78,4.78,0,0,1,2,.34,4.32,4.32,0,0,1,1.54,1.06,5,5,0,0,1,1,1.54,4.78,4.78,0,0,1,.35,2V21.42a4.7,4.7,0,0,1-.39,1.91,4.84,4.84,0,0,1-1,1.54,4.72,4.72,0,0,1-1.54,1,4.78,4.78,0,0,1-1.93.39h-1.54Zm0-4h1.54a.85.85,0,0,0,.66-.28.92.92,0,0,0,.25-.66V5A.92.92,0,0,0,211,4.3a.85.85,0,0,0-.66-.28h-1.54Z"/><path class="cls-1" d="M217.82,26.3a.45.45,0,0,1-.37-.18.48.48,0,0,1-.12-.4L221.49.49a.34.34,0,0,1,.15-.29A.51.51,0,0,1,222,.06h3.51a.45.45,0,0,1,.49.4v0l4.22,25.22a.4.4,0,0,1-.09.4.52.52,0,0,1-.4.18h-3.08a.46.46,0,0,1-.51-.48l-.55-4.05H221.9l-.55,4.05c-.09.31-.26.48-.51.48Zm4.62-8.48h2.62l-1.29-9.48Z"/><path class="cls-1" d="M240.09,26.37a.48.48,0,0,1-.48-.29l-3.21-9.25v9a.46.46,0,0,1-.39.52h-3a.55.55,0,0,1-.37-.14.48.48,0,0,1-.17-.39V.57a.46.46,0,0,1,.15-.34A.48.48,0,0,1,233,.06h4.9a4.7,4.7,0,0,1,1.91.39,4.62,4.62,0,0,1,1.54,1,5.53,5.53,0,0,1,1,1.54,5,5,0,0,1,.4,1.94V10.8a4.62,4.62,0,0,1-.85,2.74,4.86,4.86,0,0,1-2.16,1.79l3.59,10.39a.45.45,0,0,1,0,.48.48.48,0,0,1-.43.23Zm-3.68-14.69h1.46a.92.92,0,0,0,.68-.28.94.94,0,0,0,.26-.66V5a1,1,0,0,0-.26-.68,1,1,0,0,0-.68-.26h-1.46Z"/><path class="cls-1" d="M122.92,79.06A7.31,7.31,0,0,1,119,83a7.17,7.17,0,0,1-2.87.59h-1a7.23,7.23,0,0,1-6.78-4.5,7.18,7.18,0,0,1-.57-2.88V71.55a.68.68,0,0,1,.77-.79H113a.69.69,0,0,1,.79.79v4.62a1.33,1.33,0,0,0,.4,1,1.54,1.54,0,0,0,1,.37h1a1.42,1.42,0,0,0,1-.39,1.34,1.34,0,0,0,.4-1V70a2.28,2.28,0,0,0-.79-1.7l-7.41-6.67a4.47,4.47,0,0,1-1.54-3.47V51.5a7.37,7.37,0,0,1,.57-2.9,7.52,7.52,0,0,1,1.54-2.36,7.15,7.15,0,0,1,2.36-1.54,7.31,7.31,0,0,1,2.85-.69h1a7.17,7.17,0,0,1,2.87.59,7.24,7.24,0,0,1,2.34,1.54,7.52,7.52,0,0,1,1.54,2.36,7.37,7.37,0,0,1,.59,2.9v4.52a.82.82,0,0,1-.22.52.74.74,0,0,1-.57.26h-4.3a.74.74,0,0,1-.55-.26.77.77,0,0,1-.23-.52V51.39a1.34,1.34,0,0,0-.42-1,1.36,1.36,0,0,0-1-.4h-1a1.4,1.4,0,0,0-1.42,1.39s0,0,0,0v5.73a2.31,2.31,0,0,0,.85,1.8l7.4,6.64A4.41,4.41,0,0,1,123.5,69v7.12A7.18,7.18,0,0,1,122.92,79.06Z"/><path class="cls-1" d="M136.91,83.5h-4.62c-.45,0-.66-.25-.65-.72V49.85h-4.78c-.49,0-.72-.26-.72-.79V44.61a.74.74,0,0,1,.22-.52.65.65,0,0,1,.51-.26h15.57a.74.74,0,0,1,.55.26.77.77,0,0,1,.23.52v4.45a.69.69,0,0,1-.59.79h-5V82.77a.65.65,0,0,1-.56.73Z"/><path class="cls-1" d="M143.48,83.5a.74.74,0,0,1-.55-.26.8.8,0,0,1-.17-.62l6.29-38a.54.54,0,0,1,.25-.46.8.8,0,0,1,.51-.18h5.41a.66.66,0,0,1,.74.65l6.35,38a.59.59,0,0,1-.12.6.79.79,0,0,1-.6.28h-4.62a.69.69,0,0,1-.74-.72l-.83-6.17h-5.73l-.83,6.17c-.15.48-.4.72-.76.72Zm7.11-12.78h4l-2-14.27Z"/><path class="cls-1" d="M167.88,82.66V66l-6.61-20.93a.79.79,0,0,1,.11-.72A.76.76,0,0,1,162,44h4.28a.71.71,0,0,1,.77.48l3.75,12,3.76-12a.77.77,0,0,1,.76-.48h4.3a.77.77,0,0,1,.66.29.71.71,0,0,1,0,.72L173.76,66V82.66q0,.83-.79.83h-4.35C168.11,83.5,167.86,83.22,167.88,82.66Z"/><path class="cls-1" d="M183.86,44.14a.8.8,0,0,1,.51-.18h4.52c.48,0,.72.23.72.69V58.26l5.84-13.87a.68.68,0,0,1,.72-.43h4.62a.71.71,0,0,1,.65,1.09L193.74,63.4l7.58,19.08a.74.74,0,0,1-.71,1h-4.44a.71.71,0,0,1-.72-.49l-4.9-12.13-.94,2.31v9.57c0,.52-.25.79-.72.79h-4.52a.76.76,0,0,1-.51-.22.68.68,0,0,1-.25-.57V44.65A.59.59,0,0,1,183.86,44.14Z"/><path class="cls-1" d="M214.06,43.88a7.37,7.37,0,0,1,2.9.57A7.12,7.12,0,0,1,219.3,46a7.55,7.55,0,0,1,1.54,2.37,7.37,7.37,0,0,1,.57,2.9v24.8a7.18,7.18,0,0,1-2.16,5.21,7.07,7.07,0,0,1-2.34,1.54,7.37,7.37,0,0,1-2.9.57h-.94a7.29,7.29,0,0,1-2.88-.57,7.48,7.48,0,0,1-2.36-1.54,7.21,7.21,0,0,1-2.19-5.21V51.33a7.37,7.37,0,0,1,.59-2.9,7.57,7.57,0,0,1,4-4,7.29,7.29,0,0,1,2.88-.57Zm1.43,7.44a1.4,1.4,0,0,0-1.39-1.42h-1a1.37,1.37,0,0,0-1.42,1.32s0,.06,0,.09v24.8a1.34,1.34,0,0,0,.42,1,1.36,1.36,0,0,0,1,.4h.94a1.42,1.42,0,0,0,1.43-1.4V51.33Z"/><path class="cls-1" d="M243.23,44.25a.55.55,0,0,1,.12.57l-6.3,38a.69.69,0,0,1-.76.74h-5.35a.76.76,0,0,1-.79-.72v0l-6.32-38a.71.71,0,0,1,.17-.57.82.82,0,0,1,.62-.25h4.56c.45,0,.71.2.76.6L233.63,71l3.76-26.43a.66.66,0,0,1,.72-.61h4.56A.83.83,0,0,1,243.23,44.25Z"/></g></g></svg>